<?xml version="1.0" encoding="UTF-8" standalone="no"?>
<svg
   width="192"
   height="192"
   viewBox="0 0 192 192"
   version="1.1"
   id="svg8"
   sodipodi:docname="Gobuntu_logo.svg"
   inkscape:version="1.2.2 (b0a8486541, 2022-12-01)"
   xmlns:inkscape="http://www.inkscape.org/namespaces/inkscape"
   xmlns:sodipodi="http://sodipodi.sourceforge.net/DTD/sodipodi-0.dtd"
   xmlns="http://www.w3.org/2000/svg"
   xmlns:svg="http://www.w3.org/2000/svg"
   xmlns:rdf="http://www.w3.org/1999/02/22-rdf-syntax-ns#"
   xmlns:cc="http://creativecommons.org/ns#"
   xmlns:dc="http://purl.org/dc/elements/1.1/">
  <sodipodi:namedview
     id="namedview12"
     pagecolor="#ffffff"
     bordercolor="#000000"
     borderopacity="0.25"
     inkscape:showpageshadow="2"
     inkscape:pageopacity="0.0"
     inkscape:pagecheckerboard="0"
     inkscape:deskcolor="#d1d1d1"
     showgrid="false"
     inkscape:zoom="2.828125"
     inkscape:cx="96"
     inkscape:cy="96.176796"
     inkscape:window-width="1260"
     inkscape:window-height="643"
     inkscape:window-x="10"
     inkscape:window-y="38"
     inkscape:window-maximized="1"
     inkscape:current-layer="svg8" />
  <defs
     id="defs2" />
  <metadata
     id="metadata5">
    <rdf:RDF>
      <cc:Work
         rdf:about="">
        <dc:format>image/svg+xml</dc:format>
        <dc:type
           rdf:resource="http://purl.org/dc/dcmitype/StillImage" />
        <dc:title />
      </cc:Work>
    </rdf:RDF>
  </metadata>
  <g
     id="layer1"
     style="fill:#a2140f" />
  <circle
     style="fill:#000000;stroke-width:0.205987"
     id="path841"
     cx="96"
     cy="96"
     r="95" />
  <g
     transform="matrix(1.92192,0,0,1.92192,6.3366,7.9068784)"
     id="g914">
    <g
       id="g31"
       transform="matrix(0.95745,0,0,0.95745,9.5599192,9.1331099)">
      <path
         d="M 38.334,0 C 32.577,0 27.121,1.278 22.222,3.551 20.869,2.097 19.899,1.055 19.67,0.809 18.666,-0.271 17.787,0.071 17.573,1.182 17.359,2.287 14.06,20.299 13.876,21.237 c -0.181,0.934 0.131,1.268 1.128,1.156 0.994,-0.113 17.801,-1.969 19.992,-2.236 2.193,-0.268 1.296,-1.49 0.77,-2.055 0,0 -0.671,-0.722 -1.733,-1.862 1.489,-0.308 3.028,-0.478 4.608,-0.478 8.977,0 16.722,5.218 20.414,12.775 1.798,-4.251 3.538,-8.354 3.731,-8.814 0.39,-0.924 0.832,-1.033 1.562,-0.418 0.468,0.4 6.555,5.448 11.016,9.151 C 71.006,12.074 56.086,0 38.334,0 Z m 38.183,35.032 c -0.007,0.002 -0.015,0.003 -0.021,0.005 h 0.022 c 0,-0.002 -0.001,-0.003 -0.001,-0.005 z"
         id="path33"
         style="fill:white" />
      <path
         d="M 36.247,68.812 C 35.701,67.976 26.519,53.777 25.299,51.935 c -1.221,-1.84 -1.913,-0.49 -2.182,0.234 0,0 -0.304,0.814 -0.792,2.12 -3.963,-4.09 -6.41,-9.658 -6.41,-15.802 0,-4.708 1.439,-9.075 3.891,-12.702 C 15.178,26.3 10.68,26.798 10.18,26.854 9.183,26.963 8.872,26.631 9.052,25.696 9.177,25.057 10.762,16.424 11.819,10.679 4.543,17.655 0,27.458 0,38.334 c 0,13.063 6.539,24.594 16.52,31.515 -0.876,2.349 -1.525,4.089 -1.662,4.456 -0.516,1.379 0.184,2.014 1.271,1.707 1.085,-0.305 18.67,-5.416 19.588,-5.672 0.918,-0.258 1.076,-0.684 0.53,-1.528 z"
         id="path35"
         style="fill:white" />
      <path
         d="M 81.617,38.826 C 80.756,38.097 66.656,26.412 65.932,25.793 65.203,25.178 64.76,25.289 64.37,26.211 c -0.389,0.924 -6.988,16.49 -7.826,18.531 -0.839,2.047 0.666,1.863 1.415,1.68 0,0 0.826,-0.201 2.155,-0.524 -3.073,8.909 -11.521,15.315 -21.474,15.315 -0.922,0 -1.826,-0.073 -2.719,-0.181 3.032,4.312 6.378,9.08 6.709,9.55 0.578,0.818 0.436,1.252 -0.473,1.547 -0.512,0.161 -6.284,2.075 -11.402,3.772 2.451,0.494 4.981,0.767 7.578,0.767 19.961,0 36.346,-15.263 38.155,-34.753 2.339,-0.569 4.059,-0.987 4.429,-1.077 1.433,-0.348 1.563,-1.285 0.7,-2.012 z"
         id="path37"
         style="fill:white" />
    </g>
  </g>
</svg>
