<?xml version="1.0" encoding="UTF-8"?>
<svg width="128pt" xmlns:xlink="http://www.w3.org/1999/xlink" xmlns="http://www.w3.org/2000/svg" height="128pt" viewBox="0 0 128 128" >
 <defs>
  <linearGradient gradientUnits="userSpaceOnUse" id="Grad0" y1="52.009" y2="4.7368" x1="12.3157" x2="42.6289" >
   <stop offset="50%" stop-color="#cbcfd0" stop-opacity="1" />
   <stop offset="90%" stop-color="#ffffff" stop-opacity="1" />
  </linearGradient>
 </defs>
 <g transform="translate(53.2593, 12.104)" style="fill:url(#Grad0); fill-rule:nonzero; stroke:#161413; stroke-width:1; stroke-linecap:butt; stroke-linejoin:miter; stroke-dasharray:none;" >
  <path d="M3.92089 22.0534 C22.9216 15.7364 43.5266 28.9996 45.0577 47.2721 C51.4926 45.8653 57.9276 44.4454 64.3625 43.0386 C65.3655 40.9414 63.5679 38.284 63.3595 35.9524 C63.2162 33.3732 62.0569 31.1848 59.139 32.0315 C54.8794 32.0315 50.6329 32.0315 46.3733 32.0315 C44.745 28.2539 39.9123 25.5835 42.9474 21.389 C44.0937 17.7547 45.7741 14.2246 46.5948 10.5512 C43.7681 8.45401 40.6027 6.51311 37.4373 4.97601 C33.6076 8.19349 30.2469 12.0623 26.5995 15.5403 C22.5875 13.5863 16.4391 15.8529 15.5142 10.2777 C13.7557 6.89087 12.44 3.19142 10.4079 0 C6.94297 0.508022 3.32168 1.38078 0 2.52709 C0.156315 6.51311 1.62828 10.5773 2.30564 14.5894 C2.83971 17.0774 3.9743 22.1311 3.92089 22.0664 C3.92089 22.0664 3.92089 22.0534 3.92089 22.0534 Z" />
 </g>
 <defs>
  <linearGradient gradientUnits="userSpaceOnUse" id="Grad1" y1="38.03" y2="37.0826" x1="0" x2="51.5932" >
   <stop offset="10%" stop-color="#ffffff" stop-opacity="1" />
   <stop offset="50%" stop-color="#cbcfd0" stop-opacity="1" />
   <stop offset="100%" stop-color="#ffffff" stop-opacity="1" />
  </linearGradient>
 </defs>
 <g transform="translate(14.6248, 25.8988)" style="fill:url(#Grad1); fill-rule:nonzero; stroke:#161413; stroke-width:1; stroke-linecap:butt; stroke-linejoin:miter; stroke-dasharray:none;" >
  <path d="M31.3788 61.4186 C17.03 50.3756 17.7405 24.6784 33.5933 13.404 C28.6824 8.93598 23.7715 4.46799 18.8737 0 C16.555 0.234472 15.2263 3.16537 13.3375 4.54615 C11.2012 6.01811 9.9377 8.14138 12.1782 10.1995 C14.3796 13.8338 16.5941 17.4682 18.7955 21.1025 C16.4248 24.4502 16.6592 29.9733 11.4748 29.5565 C7.78837 30.4553 3.90656 30.8721 0.330866 32.0836 C0.010421 35.5746 0 39.3001 0.330866 42.7911 C5.07892 44.3933 10.1331 45.2531 15.0049 46.5687 C15.4087 51.0107 20.541 55.0879 16.2554 58.7743 C14.2754 62.0308 11.8004 65.079 10.1331 68.4788 C12.3736 71.1752 14.9919 73.8065 17.7013 76.0601 C20.4499 74.1582 22.4181 71.336 24.9309 68.557 C27.0802 66.1732 31.6549 61.211 31.3919 61.4186 C31.3919 61.4186 31.3788 61.4186 31.3788 61.4186 Z" />
 </g>
 <defs>
  <linearGradient gradientUnits="userSpaceOnUse" id="Grad2" y1="-9.49255" y2="37.8755" x1="14.2104" x2="42.8148" >
   <stop offset="50%" stop-color="#cbcfd0" stop-opacity="1" />
   <stop offset="90%" stop-color="#ffffff" stop-opacity="1" />
  </linearGradient>
 </defs>
 <g transform="translate(50.9797, 70.7089)" style="fill:url(#Grad2); fill-rule:nonzero; stroke:#161413; stroke-width:1; stroke-linecap:butt; stroke-linejoin:miter; stroke-dasharray:none;" >
  <path d="M46.5296 1.42109e-14 C44.8589 18.2363 22.4774 30.1967 5.02812 22.7568 C3.34774 29.0875 1.68038 35.4183 0 41.762 C1.35473 43.6508 4.55917 43.3382 6.69547 44.2891 C9.04019 45.3964 11.5152 45.4354 12.1795 42.4655 C14.2246 38.74 16.2697 35.0145 18.3149 31.289 C22.4051 31.6667 27.0815 28.7098 29.309 33.4122 C31.9273 36.1477 34.2199 39.3261 37.0596 41.8011 C40.238 40.3422 43.4685 38.4925 46.3342 36.4734 C45.3573 31.5625 43.5857 26.7428 42.2961 21.871 C45.9304 19.3048 46.9074 12.8308 52.2351 14.6936 C56.0518 14.8238 59.9336 15.397 63.7112 15.1625 C64.9227 11.8669 65.8996 8.28467 66.4988 4.8197 C63.4767 3.36076 59.7122 3.1784 56.4035 2.21446 C53.1079 1.48499 49.8122 0.742494 46.5296 0 C46.5296 0 46.5296 1.42109e-14 46.5296 1.42109e-14 Z" />
 </g>
</svg>
