<?xml version="1.0" encoding="UTF-8"?>
<svg width="128pt" xmlns:xlink="http://www.w3.org/1999/xlink" xmlns="http://www.w3.org/2000/svg" height="128pt" viewBox="0 0 128 128" >
 <defs>
  <radialGradient cx="9.0864" gradientUnits="userSpaceOnUse" cy="44.9507" r="36.658" id="Grad0" >
   <stop offset="0%" stop-color="#fdfdfc" stop-opacity="1" />
   <stop offset="32.78%" stop-color="#fdfdfc" stop-opacity="1" />
   <stop offset="67.7359%" stop-color="#f4f5f4" stop-opacity="1" />
   <stop offset="100%" stop-color="#cbcfd0" stop-opacity="1" />
  </radialGradient>
 </defs>
 <g transform="translate(59.2336, 11.2066)" style="fill:url(#Grad0); fill-rule:nonzero; stroke:#000000; stroke-width:0.8; stroke-linecap:butt; stroke-linejoin:miter; stroke-dasharray:none;" >
  <path d="M17.2162 0 C17.2162 0 0 1.65541 0 1.65541 C0 1.65541 0 72.5803 0 72.5803 C0 72.5803 17.0323 70.0053 17.0323 70.0053 C17.0323 70.0053 17.0323 39.7665 17.0323 39.7665 C17.0323 39.7665 39.9506 73.316 39.9506 73.316 C39.9506 73.316 57.9024 67.6141 57.9024 67.6141 C57.9024 67.6141 34.4324 35.352 34.4324 35.352 C34.4324 35.352 58.0864 4.92943 58.0864 4.92943 C58.0864 4.92943 39.7666 0.735736 39.7666 0.735736 C39.7666 0.735736 17.0323 31.1585 17.0323 31.1585 C17.0323 31.1585 17.2162 8.88178e-15 17.2162 8.88178e-15 C17.2162 8.88178e-15 17.2162 0 17.2162 0 Z" />
 </g>
 <defs>
  <radialGradient cx="49" gradientUnits="userSpaceOnUse" cy="27.681" r="43.1611" id="Grad1" >
   <stop offset="0%" stop-color="#fdfdfc" stop-opacity="1" />
   <stop offset="32.78%" stop-color="#fdfdfc" stop-opacity="1" />
   <stop offset="67.7359%" stop-color="#f4f5f4" stop-opacity="1" />
   <stop offset="100%" stop-color="#cbcfd0" stop-opacity="1" />
  </radialGradient>
 </defs>
 <g transform="translate(19.32, 28.4763)" style="fill:url(#Grad1); fill-rule:nonzero; stroke:#000000; stroke-width:0.8; stroke-linecap:butt; stroke-linejoin:miter; stroke-dasharray:none;" >
  <path d="M18.0991 0.0201 C17.9044 0.0402 17.6938 0.0939 17.5474 0.2408 C17.5474 0.2408 10.7785 7.0096 10.7785 7.0096 C10.4942 7.2947 10.4595 7.7312 10.6682 8.0763 C10.6682 8.0763 18.5774 21.1357 18.5774 21.1357 C17.173 23.4965 16.0326 26.029 15.2297 28.7138 C15.2297 28.7138 0.698949 31.7303 0.698949 31.7303 C0.29459 31.8139 0 32.1988 0 32.6132 C0 32.6132 0 42.1777 0 42.1777 C0 42.5821 0.307536 42.9284 0.698949 43.0238 C0.698949 43.0238 14.7883 46.445 14.7883 46.445 C15.5417 49.5534 16.7057 52.5278 18.2462 55.237 C18.2462 55.237 10.0796 67.6709 10.0796 67.6709 C9.8518 68.0182 9.89623 68.4815 10.1899 68.7747 C10.1899 68.7747 16.9588 75.5434 16.9588 75.5434 C17.2439 75.8276 17.6812 75.8633 18.0255 75.6537 C18.0255 75.6537 30.8273 67.8918 30.8273 67.8918 C33.3382 69.3413 36.0567 70.5027 38.9204 71.2762 C38.9204 71.2762 41.9002 85.6233 41.9002 85.6233 C41.9837 86.0283 42.3322 86.3223 42.7462 86.3223 C42.7462 86.3223 52.3108 86.3223 52.3108 86.3223 C52.7122 86.3223 53.0616 86.0523 53.1568 85.6593 C53.1568 85.6593 56.6884 71.2393 56.6884 71.2393 C59.6419 70.4429 62.4266 69.2607 65.0023 67.7446 C65.0023 67.7446 77.6201 76.0216 77.6201 76.0216 C77.968 76.2482 78.4288 76.2044 78.7237 75.9113 C78.7237 75.9113 85.4558 69.1424 85.4558 69.1424 C85.7417 68.8571 85.8123 68.42 85.6029 68.0756 C85.6029 68.0756 81.0045 60.4976 81.0045 60.4976 C81.0045 60.4976 79.4962 60.9759 79.4962 60.9759 C79.2784 61.043 79.0371 60.9445 78.9076 60.755 C78.9076 60.755 76.0029 56.4822 72.2124 50.933 C67.6792 59.8036 58.4341 65.8684 47.786 65.8684 C32.6552 65.8684 20.3799 53.5931 20.3799 38.4623 C20.3799 27.3325 27.0354 17.7731 36.5661 13.4841 C36.5661 13.4841 36.5661 6.421 36.5661 6.421 C34.8315 7.0281 33.1558 7.7606 31.5631 8.6282 C31.5601 8.6264 31.566 8.5931 31.5631 8.5915 C31.5631 8.5915 18.651 0.1304 18.651 0.1304 C18.4773 0.0169 18.2938 0 18.0991 0.0201 C18.0991 0.0201 18.0991 0.0201 18.0991 0.0201 Z" />
 </g>
</svg>
