<?xml version="1.0" encoding="UTF-8" standalone="no"?>
<svg
   id="svg8"
   xml:space="preserve"
   enable-background="new 0 0 23 23"
   viewBox="0 0 23 23"
   height="23px"
   width="23px"
   y="0px"
   x="0px"
   version="1.1"
   sodipodi:docname="ucl.svg"
   inkscape:version="1.2.2 (b0a8486541, 2022-12-01)"
   xmlns:inkscape="http://www.inkscape.org/namespaces/inkscape"
   xmlns:sodipodi="http://sodipodi.sourceforge.net/DTD/sodipodi-0.dtd"
   xmlns="http://www.w3.org/2000/svg"
   xmlns:svg="http://www.w3.org/2000/svg"
   xmlns:rdf="http://www.w3.org/1999/02/22-rdf-syntax-ns#"
   xmlns:cc="http://creativecommons.org/ns#"
   xmlns:dc="http://purl.org/dc/elements/1.1/"><sodipodi:namedview
     id="namedview58"
     pagecolor="#ffffff"
     bordercolor="#000000"
     borderopacity="0.25"
     inkscape:showpageshadow="2"
     inkscape:pageopacity="0.0"
     inkscape:pagecheckerboard="0"
     inkscape:deskcolor="#d1d1d1"
     showgrid="false"
     inkscape:zoom="23.608696"
     inkscape:cx="11.542357"
     inkscape:cy="11.521179"
     inkscape:window-width="1260"
     inkscape:window-height="643"
     inkscape:window-x="10"
     inkscape:window-y="38"
     inkscape:window-maximized="1"
     inkscape:current-layer="svg8" /><metadata
     id="metadata14"><rdf:RDF><cc:Work
         rdf:about=""><dc:format>image/svg+xml</dc:format><dc:type
           rdf:resource="http://purl.org/dc/dcmitype/StillImage" /><dc:title /></cc:Work></rdf:RDF></metadata><defs
     id="defs12" /><path
     id="XMLID_9_"
     d="M 11.5 0 C 5.149 0 0 5.149 0 11.5 C 0 17.852 5.149 23 11.5 23 C 17.852 23 23 17.852 23 11.5 C 23 5.149 17.852 0 11.5 0 z M 11.5 1.9609375 C 16.769 1.9609375 21.039062 6.231 21.039062 11.5 C 21.039062 12.310396 20.928511 13.09242 20.738281 13.84375 L 16.201172 8.8007812 L 10.400391 15.400391 L 13.199219 9.8007812 L 11.800781 7.3007812 L 3.5546875 16.777344 C 2.5486997 15.265661 1.9609375 13.451673 1.9609375 11.5 C 1.9609375 6.231 6.231 1.9609375 11.5 1.9609375 z "
     style="fill:#ffffff" /></svg>
